<svg viewBox="0 0 24 24" id="Layer_1" data-name="Layer 1" xmlns="http://www.w3.org/2000/svg" xmlns:xlink="http://www.w3.org/1999/xlink" fill="#000000"><g id="SVGRepo_bgCarrier" stroke-width="0"></g><g id="SVGRepo_tracerCarrier" stroke-linecap="round" stroke-linejoin="round"></g><g id="SVGRepo_iconCarrier"> <defs> <style>.cls-1{fill:none;}.cls-2{clip-path:url(#clip-path);}</style> <clipPath id="clip-path"> <rect class="cls-1" width="24" height="24"></rect> </clipPath> </defs> <title>documents</title> <g class="cls-2"> <path d="M17,21H7a4,4,0,0,1-4-4V11A4,4,0,0,1,7,7H17a4,4,0,0,1,4,4v6A4,4,0,0,1,17,21ZM7,9a2,2,0,0,0-2,2v6a2,2,0,0,0,2,2H17a2,2,0,0,0,2-2V11a2,2,0,0,0-2-2Z"></path> <path d="M4,13a1,1,0,0,1-1-1V4A1,1,0,0,1,4,3H9a1,1,0,0,1,.45.11l8,4a1,1,0,0,1-.9,1.78L8.76,5H5v7A1,1,0,0,1,4,13Z"></path> </g> </g></svg>