<svg height="200px" width="200px" version="1.1" id="_x32_" xmlns="http://www.w3.org/2000/svg" xmlns:xlink="http://www.w3.org/1999/xlink" viewBox="0 0 512 512" xml:space="preserve" fill="#000000"><g id="SVGRepo_bgCarrier" stroke-width="0"></g><g id="SVGRepo_tracerCarrier" stroke-linecap="round" stroke-linejoin="round"></g><g id="SVGRepo_iconCarrier"> <style type="text/css"> .st0{fill:#000000;} </style> <g> <path class="st0" d="M249.705,108.488c-81.462,0-147.512,66.05-147.512,147.512c0,81.462,66.05,147.512,147.512,147.512 c81.472,0,147.512-66.05,147.512-147.512C397.217,174.538,331.177,108.488,249.705,108.488z M249.705,373.677 c-64.884,0-117.677-52.793-117.677-117.677s52.793-117.677,117.677-117.677S367.382,191.116,367.382,256 S314.589,373.677,249.705,373.677z"></path> <path class="st0" d="M21.915,172.576C4.075,234.032,0.307,272.782,0.307,272.782s-1.942,23.58,3.943,23.58 c5.875,0,20.442,0,20.442,0v85.464c0,9.216,7.489,16.704,16.704,16.704h12.946c9.216,0,16.704-7.488,16.704-16.704V139.148 C71.048,115.568,39.6,111.655,21.915,172.576z"></path> <path class="st0" d="M497.908,126.057h-0.039c-5.604,0-6.166,4.545-6.166,10.149v64.69h-16.248v-64.69 c0-5.604-4.545-10.149-10.149-10.149c-5.604,0-10.149,4.545-10.149,10.149v64.69h-19.074v-64.69c0-5.604-0.563-10.149-6.167-10.149 h-0.039c-7.779,0-14.092,6.313-14.092,14.092v60.747c0,26.105,6.808,33.117,13.674,39.983c7.459,7.459,11.256,9.945,11.256,18.646 c0,8.702,0,36.837,0,36.837v85.464c0,9.216,7.488,16.704,16.704,16.704h12.946c9.216,0,16.704-7.488,16.704-16.704V259.525 c0-8.702,3.797-11.188,11.256-18.646c6.866-6.866,13.674-13.878,13.674-39.983v-60.747C512,132.37,505.687,126.057,497.908,126.057 z"></path> </g> </g></svg>