<svg class="animated" id="freepik_stories-refreshing" xmlns="http://www.w3.org/2000/svg" viewBox="0 0 500 500" version="1.1" xmlns:xlink="http://www.w3.org/1999/xlink" xmlns:svgjs="http://svgjs.com/svgjs"><style>svg#freepik_stories-refreshing:not(.animated) .animable {opacity: 0;}svg#freepik_stories-refreshing.animated #freepik--fresh-drink--inject-169 {animation: 1.5s Infinite  linear wind;animation-delay: 0s;}            @keyframes wind {                0% {                    transform: rotate( 0deg );                }                25% {                    transform: rotate( 1deg );                }                75% {                    transform: rotate( -1deg );                }            }        </style><g id="freepik--background-complete--inject-169" class="animable" style="transform-origin: 250px 226.5px;"><rect y="382.4" width="500" height="0.25" style="fill: rgb(235, 235, 235); transform-origin: 250px 382.525px;" id="el5ehjpkjwhrs" class="animable"></rect><rect x="53.79" y="391.21" width="41.21" height="0.25" style="fill: rgb(235, 235, 235); transform-origin: 74.395px 391.335px;" id="eldsrnm967lcl" class="animable"></rect><rect x="137.67" y="389.21" width="41.33" height="0.25" style="fill: rgb(235, 235, 235); transform-origin: 158.335px 389.335px;" id="elck8ph6whqs" class="animable"></rect><rect x="222.78" y="389.21" width="10" height="0.25" style="fill: rgb(235, 235, 235); transform-origin: 227.78px 389.335px;" id="elu04suila33c" class="animable"></rect><rect x="86.58" y="397.75" width="46.25" height="0.25" style="fill: rgb(235, 235, 235); transform-origin: 109.705px 397.875px;" id="eljsdrpkjs0i" class="animable"></rect><rect x="271.2" y="391.08" width="21.6" height="0.25" style="fill: rgb(235, 235, 235); transform-origin: 282px 391.205px;" id="el1b03rnyd41vh" class="animable"></rect><rect x="301.7" y="391.08" width="27.93" height="0.25" style="fill: rgb(235, 235, 235); transform-origin: 315.665px 391.205px;" id="el91j5ldrm22u" class="animable"></rect><rect x="401.89" y="395.31" width="62.44" height="0.25" style="fill: rgb(235, 235, 235); transform-origin: 433.11px 395.435px;" id="el6djrezvfnhg" class="animable"></rect><path d="M237,337.8H43.91a5.71,5.71,0,0,1-5.7-5.71V60.66A5.71,5.71,0,0,1,43.91,55H237a5.71,5.71,0,0,1,5.71,5.71V332.09A5.71,5.71,0,0,1,237,337.8ZM43.91,55.2a5.46,5.46,0,0,0-5.45,5.46V332.09a5.46,5.46,0,0,0,5.45,5.46H237a5.47,5.47,0,0,0,5.46-5.46V60.66A5.47,5.47,0,0,0,237,55.2Z" style="fill: rgb(235, 235, 235); transform-origin: 140.46px 196.4px;" id="elji9pwq049gf" class="animable"></path><path d="M453.31,337.8H260.21a5.72,5.72,0,0,1-5.71-5.71V60.66A5.72,5.72,0,0,1,260.21,55h193.1A5.71,5.71,0,0,1,459,60.66V332.09A5.71,5.71,0,0,1,453.31,337.8ZM260.21,55.2a5.47,5.47,0,0,0-5.46,5.46V332.09a5.47,5.47,0,0,0,5.46,5.46h193.1a5.47,5.47,0,0,0,5.46-5.46V60.66a5.47,5.47,0,0,0-5.46-5.46Z" style="fill: rgb(235, 235, 235); transform-origin: 356.75px 196.4px;" id="el85qivx9w4co" class="animable"></path><rect x="272.08" y="72.94" width="166" height="224.38" style="fill: rgb(230, 230, 230); transform-origin: 355.08px 185.13px;" id="elyxyh8z8ida" class="animable"></rect><rect x="274.4" y="72.94" width="168.66" height="224.38" style="fill: rgb(240, 240, 240); transform-origin: 358.73px 185.13px;" id="elvm4vo72rwt" class="animable"></rect><rect x="272.08" y="297.32" width="166" height="4.35" style="fill: rgb(230, 230, 230); transform-origin: 355.08px 299.495px;" id="elehr2k4yyw8w" class="animable"></rect><rect x="277.06" y="297.32" width="168.66" height="4.35" style="fill: rgb(240, 240, 240); transform-origin: 361.39px 299.495px;" id="elj7t31pd8u" class="animable"></rect><g id="elfu3xo3hdthn"><rect x="253.51" y="107.77" width="210.43" height="154.71" style="fill: rgb(250, 250, 250); transform-origin: 358.725px 185.125px; transform: rotate(90deg);" class="animable" id="elnb4abce9529"></rect></g><polygon points="330.84 290.35 360 79.91 379.32 79.91 350.16 290.35 330.84 290.35" style="fill: rgb(255, 255, 255); transform-origin: 355.08px 185.13px;" id="elbedadozi906" class="animable"></polygon><polygon points="308.28 290.35 337.45 79.91 356.76 79.91 327.6 290.35 308.28 290.35" style="fill: rgb(255, 255, 255); transform-origin: 332.52px 185.13px;" id="ele1fpgn8xjcg" class="animable"></polygon><rect x="285.02" y="79.91" width="1.89" height="197.78" rx="0.57" style="fill: rgb(240, 240, 240); transform-origin: 285.965px 178.8px;" id="elqq6jcw890h" class="animable"></rect><polygon points="380.51 290.35 409.67 79.91 417.21 79.91 388.04 290.35 380.51 290.35" style="fill: rgb(255, 255, 255); transform-origin: 398.86px 185.13px;" id="ele090fbnygjt" class="animable"></polygon><g id="elpcv4ucnpcr"><rect x="330.43" y="184.69" width="210.43" height="0.89" style="fill: rgb(230, 230, 230); transform-origin: 435.645px 185.135px; transform: rotate(90deg);" class="animable" id="elq5qdf3eay"></rect></g><g id="elqd6341jxy6"><polygon points="444.71 88.64 278.7 88.64 278.06 82.62 444.07 82.62 444.71 88.64" style="fill: rgb(224, 224, 224); opacity: 0.5; transform-origin: 361.385px 85.63px;" class="animable" id="el0dta7q1ip424"></polygon></g><g id="el8khm61sik4u"><polygon points="444.71 109.3 278.7 109.3 278.06 103.28 444.07 103.28 444.71 109.3" style="fill: rgb(224, 224, 224); opacity: 0.5; transform-origin: 361.385px 106.29px;" class="animable" id="elfze3tni9rtb"></polygon></g><g id="el3v5t4zsuqb8"><polygon points="444.71 129.95 278.7 129.95 278.06 123.93 444.07 123.93 444.71 129.95" style="fill: rgb(224, 224, 224); opacity: 0.5; transform-origin: 361.385px 126.94px;" class="animable" id="elo926jvevre"></polygon></g><g id="el1qc6ct2d0j3"><polygon points="444.71 150.6 278.7 150.6 278.06 144.58 444.07 144.58 444.71 150.6" style="fill: rgb(224, 224, 224); opacity: 0.5; transform-origin: 361.385px 147.59px;" class="animable" id="ell4cx3ibkqxo"></polygon></g><g id="elbied6zug1hc"><polygon points="444.71 171.26 278.7 171.26 278.06 165.24 444.07 165.24 444.71 171.26" style="fill: rgb(224, 224, 224); opacity: 0.5; transform-origin: 361.385px 168.25px;" class="animable" id="el3kx32lgjr0s"></polygon></g><g id="elue1uws8nos"><polygon points="444.71 191.91 278.7 191.91 278.06 185.89 444.07 185.89 444.71 191.91" style="fill: rgb(224, 224, 224); opacity: 0.5; transform-origin: 361.385px 188.9px;" class="animable" id="el1sm8r8gb1z7"></polygon></g><g id="elv60tyitykn"><polygon points="444.71 98.97 278.7 98.97 278.06 92.95 444.07 92.95 444.71 98.97" style="fill: rgb(224, 224, 224); opacity: 0.5; transform-origin: 361.385px 95.96px;" class="animable" id="eln4x9naung8"></polygon></g><g id="elhlph7asgjl6"><polygon points="444.71 119.62 278.7 119.62 278.06 113.6 444.07 113.6 444.71 119.62" style="fill: rgb(224, 224, 224); opacity: 0.5; transform-origin: 361.385px 116.61px;" class="animable" id="eljmzlnjd079k"></polygon></g><g id="elxol3j726te"><polygon points="444.71 140.28 278.7 140.28 278.06 134.26 444.07 134.26 444.71 140.28" style="fill: rgb(224, 224, 224); opacity: 0.5; transform-origin: 361.385px 137.27px;" class="animable" id="elv75fj4mp11r"></polygon></g><g id="elzd5ogxncog"><polygon points="444.71 160.93 278.7 160.93 278.06 154.91 444.07 154.91 444.71 160.93" style="fill: rgb(224, 224, 224); opacity: 0.5; transform-origin: 361.385px 157.92px;" class="animable" id="elrghl7v3f2fe"></polygon></g><g id="elknswzopx9i"><polygon points="444.71 181.58 278.7 181.58 278.06 175.56 444.07 175.56 444.71 181.58" style="fill: rgb(224, 224, 224); opacity: 0.5; transform-origin: 361.385px 178.57px;" class="animable" id="elatwzf0clcjt"></polygon></g><g id="elugb91s7e74q"><polygon points="444.71 202.24 278.7 202.24 278.06 196.22 444.07 196.22 444.71 202.24" style="fill: rgb(224, 224, 224); opacity: 0.5; transform-origin: 361.385px 199.23px;" class="animable" id="elzdec1yenie"></polygon></g><g id="elh56r00zn4fr"><rect x="70.65" y="87.01" width="146.29" height="109.21" style="fill: rgb(250, 250, 250); transform-origin: 143.795px 141.615px; transform: rotate(180deg);" class="animable" id="el6amt73rzqfb"></rect></g><rect x="63.68" y="87.01" width="6.97" height="109.21" style="fill: rgb(240, 240, 240); transform-origin: 67.165px 141.615px;" id="elx4iqssmbchr" class="animable"></rect><path d="M189.13,101.51a81.51,81.51,0,0,1-10.55,10.58c-.51.42-.32,1.21.22.88,1.64-1,3.39-2.19,5.21-3.47.52-.36.77.36.29.83a65.77,65.77,0,0,1-20.88,14l-.06.06A128.44,128.44,0,0,0,185,114.3c.51-.3.7.45.22.87a84.94,84.94,0,0,1-10.12,7.72c-.54.35-.45,1.23.1,1s1.37-.68,2.07-1c.51-.26.66.49.18.9a88.38,88.38,0,0,1-13.26,9.39c-.53.31-.5,1.2.05,1,4.54-1.83,9.56-4,14.78-6.7.51-.26.66.5.18.9C162.8,142,144,146.37,137.93,147.49a183.56,183.56,0,0,0,34.82-9.38c.51-.2.57.61.07,1a87.11,87.11,0,0,1-17.15,9.25c-.56.23-.63,1.18-.08,1,2.36-.63,4.78-1.35,7.24-2.16.51-.17.55.65,0,1a100.13,100.13,0,0,1-24.95,11.61c-.56.18-.68,1.18-.13,1.06a97.81,97.81,0,0,0,10.4-3c.49-.17.56.6.08,1a55.77,55.77,0,0,1-16.69,8.58c-.54.17-.68,1.14-.15,1.06,2.66-.42,5.45-.94,8.31-1.62.49-.11.48.69,0,1a54.44,54.44,0,0,1-20.63,7.74c-.53.09-.77,1.08-.26,1.08a87,87,0,0,0,11.65-.79c.48-.06.42.76-.07,1-19.07,10.37-40,3.41-40.37,3.28h0l-1.54-.66c-1.55-.67-.79-3.83,1.16-4.79,15.65-7.7,59.19-31.5,90-71.2.44-.56,1-.11.58.5q-1.77,2.81-4.16,5.91c-.38.49-.09,1.06.38.72a145.37,145.37,0,0,0,12.24-9.86C189.22,100.35,189.57,101,189.13,101.51Z" style="fill: rgb(235, 235, 235); transform-origin: 138.49px 141.632px;" id="el2bplv5ovm47" class="animable"></path><path d="M200.41,120.13a74.78,74.78,0,0,0-14.2,4.85c-.61.28-1.28-.3-.74-.64,1.63-1.06,3.43-2.17,5.37-3.29.54-.31,0-.91-.66-.68a60.49,60.49,0,0,0-21.59,13.09l-.08,0a120,120,0,0,1,18.25-15.8c.49-.34-.13-.89-.73-.64a77.69,77.69,0,0,0-11.35,5.86c-.55.35-1.33-.18-.85-.58s1.19-1,1.81-1.46c.46-.35-.18-.88-.76-.62a81.35,81.35,0,0,0-14.19,8c-.51.37-1.33-.11-.9-.53,3.56-3.45,7.68-7.16,12.3-10.85.45-.37-.2-.89-.78-.63-19.5,9-31.28,24.79-34.82,30.09a177.57,177.57,0,0,1,23-28.77c.39-.4-.34-.87-.87-.56a81.21,81.21,0,0,0-15.65,11.86c-.44.42-1.36,0-1-.44,1.55-1.95,3.21-3.92,5-5.88.36-.4-.38-.85-.9-.53a93.73,93.73,0,0,0-21,18.17c-.39.45-1.38.06-1-.4a97.16,97.16,0,0,1,7-8.51c.37-.38-.32-.83-.86-.55a51.62,51.62,0,0,0-14.83,11.75c-.39.44-1.35.09-1-.38,1.47-2.36,3.1-4.77,4.89-7.18.31-.41-.44-.81-.93-.49a51.64,51.64,0,0,0-15.66,16c-.3.47-1.32.21-1.11-.29a89.31,89.31,0,0,1,5.48-10.8c.26-.43-.53-.78-1-.44C88.43,152,86.43,175.59,86.39,176v1.83c0,1.83,3.26,2.68,5,1.29C104.92,168,144.94,138,194.68,128.21c.7-.14.48-.87-.24-.81a71.91,71.91,0,0,0-7.22,1c-.62.11-1-.45-.53-.73a135.4,135.4,0,0,1,14.22-6.84C201.52,120.63,201.08,120,200.41,120.13Z" style="fill: rgb(240, 240, 240); transform-origin: 143.795px 147.975px;" id="el9x191ai0jhc" class="animable"></path><rect x="210.54" y="224.36" width="23.07" height="158.03" style="fill: rgb(230, 230, 230); transform-origin: 222.075px 303.375px;" id="els2otgthv0yc" class="animable"></rect><polygon points="219.56 382.4 233.61 382.4 233.61 367.82 204.83 367.82 219.56 382.4" style="fill: rgb(235, 235, 235); transform-origin: 219.22px 375.11px;" id="elfox5jpj4q8d" class="animable"></polygon><rect x="141.42" y="224.36" width="23.07" height="158.03" style="fill: rgb(230, 230, 230); transform-origin: 152.955px 303.375px;" id="el5oa7i9lz68c" class="animable"></rect><rect x="152.22" y="224.36" width="81.39" height="155" style="fill: rgb(235, 235, 235); transform-origin: 192.915px 301.86px;" id="ellrs9njf0czf" class="animable"></rect><polygon points="166.27 382.4 152.22 382.4 152.22 367.82 181 367.82 166.27 382.4" style="fill: rgb(235, 235, 235); transform-origin: 166.61px 375.11px;" id="el36wt3ibrbrr" class="animable"></polygon><rect x="163.12" y="269.64" width="59.59" height="63.9" style="fill: rgb(250, 250, 250); transform-origin: 192.915px 301.59px;" id="el5gu3gccoclv" class="animable"></rect><rect x="163.12" y="340.05" width="59.59" height="30.41" style="fill: rgb(250, 250, 250); transform-origin: 192.915px 355.255px;" id="elc7yqe0jmndu" class="animable"></rect><path d="M184.16,267h17.51a0,0,0,0,1,0,0v1.22a4.66,4.66,0,0,1-4.66,4.66h-8.19a4.66,4.66,0,0,1-4.66-4.66V267A0,0,0,0,1,184.16,267Z" style="fill: rgb(235, 235, 235); transform-origin: 192.915px 269.94px;" id="elo47wvfhm1tk" class="animable"></path><rect x="163.12" y="232.73" width="59.59" height="30.41" style="fill: rgb(250, 250, 250); transform-origin: 192.915px 247.935px;" id="el58qt9g6ezzh" class="animable"></rect><path d="M184.16,230.1h17.51a0,0,0,0,1,0,0v1.22A4.66,4.66,0,0,1,197,236h-8.19a4.66,4.66,0,0,1-4.66-4.66V230.1A0,0,0,0,1,184.16,230.1Z" style="fill: rgb(235, 235, 235); transform-origin: 192.91px 233.05px;" id="ellcyn17iit9n" class="animable"></path><path d="M184.16,337.41h17.51a0,0,0,0,1,0,0v1.22A4.66,4.66,0,0,1,197,343.3h-8.19a4.66,4.66,0,0,1-4.66-4.66v-1.22A0,0,0,0,1,184.16,337.41Z" style="fill: rgb(235, 235, 235); transform-origin: 192.91px 340.355px;" id="elm133b8i02f" class="animable"></path><rect x="122.92" y="224.36" width="23.07" height="158.03" style="fill: rgb(230, 230, 230); transform-origin: 134.455px 303.375px;" id="elx22fbwfhyok" class="animable"></rect><polygon points="131.94 382.4 145.99 382.4 145.99 367.82 117.21 367.82 131.94 382.4" style="fill: rgb(235, 235, 235); transform-origin: 131.6px 375.11px;" id="el4wunkpxbab8" class="animable"></polygon><rect x="53.79" y="224.36" width="23.07" height="158.03" style="fill: rgb(230, 230, 230); transform-origin: 65.325px 303.375px;" id="elredo104c5rk" class="animable"></rect><rect x="64.6" y="224.36" width="81.39" height="155" style="fill: rgb(235, 235, 235); transform-origin: 105.295px 301.86px;" id="elep4eqna539l" class="animable"></rect><polygon points="78.65 382.4 64.6 382.4 64.6 367.82 93.38 367.82 78.65 382.4" style="fill: rgb(235, 235, 235); transform-origin: 78.99px 375.11px;" id="elzfj7ci18n6p" class="animable"></polygon><rect x="75.5" y="269.64" width="59.59" height="63.9" style="fill: rgb(250, 250, 250); transform-origin: 105.295px 301.59px;" id="elarxj0wk2116" class="animable"></rect><rect x="75.5" y="340.05" width="59.59" height="30.41" style="fill: rgb(250, 250, 250); transform-origin: 105.295px 355.255px;" id="el6sb90v7t8pb" class="animable"></rect><path d="M96.54,267H114a0,0,0,0,1,0,0v1.22a4.66,4.66,0,0,1-4.66,4.66H101.2a4.66,4.66,0,0,1-4.66-4.66V267A0,0,0,0,1,96.54,267Z" style="fill: rgb(235, 235, 235); transform-origin: 105.27px 269.94px;" id="eldumsoumbex" class="animable"></path><rect x="75.5" y="232.73" width="59.59" height="30.41" style="fill: rgb(250, 250, 250); transform-origin: 105.295px 247.935px;" id="el8n2fkzx6cew" class="animable"></rect><path d="M96.54,230.1H114a0,0,0,0,1,0,0v1.22a4.66,4.66,0,0,1-4.66,4.66H101.2a4.66,4.66,0,0,1-4.66-4.66V230.1A0,0,0,0,1,96.54,230.1Z" style="fill: rgb(235, 235, 235); transform-origin: 105.27px 233.04px;" id="el89o7e8rm3zj" class="animable"></path><path d="M96.54,337.41H114a0,0,0,0,1,0,0v1.22a4.66,4.66,0,0,1-4.66,4.66H101.2a4.66,4.66,0,0,1-4.66-4.66v-1.22A0,0,0,0,1,96.54,337.41Z" style="fill: rgb(235, 235, 235); transform-origin: 105.27px 340.35px;" id="elg9bdv3w00w9" class="animable"></path></g><g id="freepik--Shadow--inject-169" class="animable" style="transform-origin: 250px 416.24px;"><ellipse id="freepik--path--inject-169" cx="250" cy="416.24" rx="193.89" ry="11.32" style="fill: rgb(245, 245, 245); transform-origin: 250px 416.24px;" class="animable"></ellipse></g><g id="freepik--Character--inject-169" class="animable" style="transform-origin: 348.038px 264.596px;"><path d="M385.55,118.8c-.25-3.69-7.84-7.28-15.33-4-9.24,4-5.92,13.74-15.48,16.74s-12,7.13-12.16,13.53-7.39,13.17-15.39,13.06c-.52,10.11,5.64,25.78,36,26.11s26.79-15.74,28.15-25.37c1.54-10.85,10.92-9.93,5.89-20.52C394.05,131.68,401,115.72,385.55,118.8Z" style="fill: rgb(38, 50, 56); transform-origin: 362.93px 148.878px;" id="elw9twm5nft69" class="animable"></path><path d="M401.26,172.38l.39.57.49.67c.33.45.68.9,1,1.34.72.88,1.49,1.73,2.29,2.53a29.76,29.76,0,0,0,5.17,4.22,19.14,19.14,0,0,0,12,3.07c.73-.06.56,0,.65,0s.1,0,.23-.11a4.24,4.24,0,0,0,1-1.79,25,25,0,0,0,1-6.62c.1-2.42,0-4.93-.13-7.45s-.4-5.09-.68-7.56l4.53-1.09a70.39,70.39,0,0,1,3.4,15.92,29.63,29.63,0,0,1-.46,8.9,12.41,12.41,0,0,1-2.44,5.16,8.9,8.9,0,0,1-2.85,2.24,10.12,10.12,0,0,1-3.13.9,26.67,26.67,0,0,1-17.92-3.58,35.85,35.85,0,0,1-7.06-5.46,43.52,43.52,0,0,1-2.95-3.27c-.45-.57-.91-1.15-1.34-1.75l-.64-.93c-.22-.34-.39-.6-.67-1.07Z" style="fill: rgb(127, 62, 59); transform-origin: 412.943px 176.875px;" id="eltx7xnlcaec" class="animable"></path><path d="M393.2,166.28c8.36,1,12.37,9.78,12.37,9.78L394,187.55s-4.29-4.33-5.56-9.29C387.15,173.1,387.53,165.59,393.2,166.28Z" style="fill: #A8A2E2; transform-origin: 396.699px 176.893px;" id="el9x3498tnxqj" class="animable"></path><path d="M426.11,163l-6.85-4.17,8.8-4.15s2.73,3.65,1.73,7.32Z" style="fill: rgb(127, 62, 59); transform-origin: 424.635px 158.84px;" id="elerputnts94" class="animable"></path><polygon points="415.98 151.59 423.08 149.7 428.06 154.7 419.26 158.85 415.98 151.59" style="fill: rgb(127, 62, 59); transform-origin: 422.02px 154.275px;" id="elp02ls9byteg" class="animable"></polygon><path d="M399.23,171.92c-.61,5.14-3.8,17.92-16.49,49.45l-36.59-9.47c3.91-14.62,6-23.15,5.63-55.19a111.06,111.06,0,0,1,16,1.75,120.1,120.1,0,0,1,16.6,4c4.56,1.56,9.45,3.64,12.28,4.9A4.38,4.38,0,0,1,399.23,171.92Z" style="fill: #A8A2E2; transform-origin: 372.708px 189.04px;" id="elgy6p1unag2e" class="animable"></path><path d="M368.73,157.73a29,29,0,0,0-7.46-.84c-.39,3.12-.57,10.44.64,12.81,4.19,2.77,6.71,3.09,6.71,3.09l-4.54,2.38s4.76,8.9,14.94,7.05c1.47-7-1.12-16-1.12-16Z" style="fill: rgb(255, 255, 255); transform-origin: 370.224px 169.679px;" id="el2pdib1mejgs" class="animable"></path><path d="M382.26,162.39s1-1,6,1.1c2.09,1.72,5.13,7.59,3.92,10a9.57,9.57,0,0,1-5.34,1.25l3.46,3.42s-4.48,6.65-11.26,4.09c-1.47-7,2-16,2-16Z" style="fill: rgb(255, 255, 255); transform-origin: 385.566px 172.494px;" id="elyuetxjo2b5a" class="animable"></path><path d="M373.53,140.3c-.13,5.56-1.25,15.53-5.78,18.16,0,0-2.52,7.21,11.27,23.76,13.56-12.72,5.33-19.72,5.33-19.72-5.64-2.86-4.51-7.21-2.56-11.08Z" style="fill: rgb(127, 62, 59); transform-origin: 377.197px 161.26px;" id="elyq8n4im668c" class="animable"></path><g id="el58tpn184lq8"><path d="M374.43,141.51a22.69,22.69,0,0,0,.19,9.64c.53,2.19,3,3.72,5.66,4.58a14.33,14.33,0,0,1,1.51-4.31Z" style="opacity: 0.2; transform-origin: 377.896px 148.62px;" class="animable" id="elmiodolgm75o"></path></g><path d="M365.54,134.05c2.14,8.92,2.86,12.74,8.21,16.67,8.06,5.9,18.51,1.57,19.07-7.75.5-8.39-3.08-21.57-12.52-23.8A12.17,12.17,0,0,0,365.54,134.05Z" style="fill: rgb(127, 62, 59); transform-origin: 379.004px 136.106px;" id="elmf3at49gge" class="animable"></path><path d="M385,119.72c2.69,8-10.38,3.92-11.21,11.8s-5.44,8.83-13.22,9.68c-1.67-8.53,3.6-19.2,7.05-21.48S378.94,112.83,385,119.72Z" style="fill: rgb(38, 50, 56); transform-origin: 372.808px 128.643px;" id="el3ptn4zs2ma9" class="animable"></path><path d="M363.58,141.58a6.92,6.92,0,0,0,3.94,3.32c2.26.71,3.43-1.25,2.84-3.39-.52-1.92-2.33-4.62-4.62-4.4S362.58,139.65,363.58,141.58Z" style="fill: rgb(127, 62, 59); transform-origin: 366.841px 141.073px;" id="elkd0nag3lpe" class="animable"></path><path d="M384.71,120.37c-1.08,1-1.59,4.29,4.81,5.13S384.71,120.37,384.71,120.37Z" style="fill: rgb(38, 50, 56); transform-origin: 387.774px 122.976px;" id="el6avnysggoxo" class="animable"></path><path d="M381.54,221.08l-28-7.32s5.26,71.48,9.26,98.74C354.64,348,349.31,407,349.31,407h6.61S373,346.87,381,316.38a38.32,38.32,0,0,0,1.16-7C384.54,274.51,381.54,221.08,381.54,221.08Z" style="fill: rgb(127, 62, 59); transform-origin: 366.194px 310.38px;" id="el3lrnm5il3xa" class="animable"></path><path d="M356.57,404.63h-7.63a.92.92,0,0,0-.88.66l-2.61,8.64a1.32,1.32,0,0,0,1.29,1.73c3.81-.07,2.39-.29,7.19-.29,3,0,10.59.31,14.67.31s4.93-4,3.29-4.4c-7.36-1.64-11.57-3.9-13.79-6.06A2.17,2.17,0,0,0,356.57,404.63Z" style="fill: rgb(38, 50, 56); transform-origin: 359.03px 410.155px;" id="elg8hqtoorhp" class="animable"></path><path d="M361.36,406.43a3.69,3.69,0,0,0,2.15-.51,1.41,1.41,0,0,0,.58-1.05.58.58,0,0,0-.26-.59c-1-.68-4.73,1-5.48,1.36a.22.22,0,0,0-.13.22.21.21,0,0,0,.16.19A14.22,14.22,0,0,0,361.36,406.43Zm1.79-1.89a.72.72,0,0,1,.43.1.2.2,0,0,1,.08.2,1,1,0,0,1-.41.73c-.65.48-2.16.55-4.11.19A13.78,13.78,0,0,1,363.15,404.54Z" style="fill: #A8A2E2; transform-origin: 361.159px 405.279px;" id="elezwazetnywf" class="animable"></path><path d="M358.43,406.05h.08c1.25-.51,3.79-2.5,3.68-3.53,0-.23-.17-.51-.73-.58-2.15-.26-3.19,3.69-3.23,3.86a.2.2,0,0,0,.06.21A.19.19,0,0,0,358.43,406.05Zm2.82-3.69h.14c.23,0,.35.09.37.2.06.6-1.7,2.17-3,2.86C359.1,404.48,359.94,402.36,361.25,402.36Z" style="fill: #A8A2E2; transform-origin: 360.207px 403.989px;" id="el2mj06lbpymm" class="animable"></path><path d="M372.65,218.76s-14.54,54.46-25.81,78.79a37.61,37.61,0,0,1-8.48,11.74c-22.21,20.74-63,60-63,60l-3.87-4.69s35.85-50,54.71-68.95c7.35-28.38,8.53-67.33,21.75-83.36Z" style="fill: rgb(127, 62, 59); transform-origin: 322.07px 290.79px;" id="elm5m9hb4uf17" class="animable"></path><path d="M345.74,211.78c-3.78,1.44-9.22,11.44-10.66,17.66s-1.84,27.89-14.45,42.67c0,0,2.33,6.79,19.22,6.33,13.39-.36,22.56,1.81,32.17,6.89,7.65,4.05,17.83-.77,17.83-.77s-8.23-46-7.11-63.19C376.3,219.56,345.74,211.78,345.74,211.78Z" style="fill: rgb(38, 50, 56); transform-origin: 355.24px 249.365px;" id="el2yzoify579b" class="animable"></path><g id="el8bo6s1wm2tg"><polygon points="359.38 263.4 359.95 238.41 363.16 243.93 359.38 263.4" style="opacity: 0.4; transform-origin: 361.27px 250.905px;" class="animable" id="elrs1cn295h2"></polygon></g><path d="M276.33,369.07l-4.19-5.51a.74.74,0,0,0-.95-.21l-7.16,4a1.46,1.46,0,0,0-.38,2.16c2.28,2.85,1.31,1.35,4.12,5,1.73,2.24,5.23,7.44,7.62,10.53s5.52,1,4.8-.53c-3.24-6.7-3.46-10.65-3.36-13.82A2.44,2.44,0,0,0,276.33,369.07Z" style="fill: rgb(38, 50, 56); transform-origin: 271.812px 374.947px;" id="el8uonue2qer8" class="animable"></path><path d="M279.34,373.49a2.61,2.61,0,0,0,.27-.22.77.77,0,0,0,.21-.72c-.28-1.15-3.43-2.3-3.79-2.43a.2.2,0,0,0-.23.06.2.2,0,0,0,0,.23c.51,1.13,1.55,3,2.7,3.26A1.13,1.13,0,0,0,279.34,373.49Zm-2.95-2.77c1.25.5,2.86,1.32,3,1.93a.31.31,0,0,1-.11.31.81.81,0,0,1-.75.28C277.92,373.13,277.13,372.19,276.39,370.72Z" style="fill: #A8A2E2; transform-origin: 277.801px 371.897px;" id="elao167n6ehgl" class="animable"></path><path d="M279.9,370.46a.85.85,0,0,0,.2-.17.76.76,0,0,0,0-1,1.21,1.21,0,0,0-.8-.57c-1.32-.26-3.41,1.31-3.5,1.38a.22.22,0,0,0-.08.2.24.24,0,0,0,.13.18C276.74,370.9,279,371.05,279.9,370.46Zm-3.4-.24a4.83,4.83,0,0,1,2.75-1,.72.72,0,0,1,.5.36c.15.24.09.36,0,.44-.42.48-2.24.54-3.33.26Z" style="fill: #A8A2E2; transform-origin: 278.003px 369.771px;" id="elo1lcu4us6cj" class="animable"></path><path d="M346.12,210.21l-2.37,2.84c-.18.22.06.55.48.66L382.56,223c.33.08.63,0,.7-.21l1.05-3.17c.08-.22-.17-.48-.53-.57l-37-9A.65.65,0,0,0,346.12,210.21Z" style="fill: rgb(255, 255, 255); transform-origin: 364.007px 216.525px;" id="elw42gv1ub5w" class="animable"></path><path d="M350.18,215.53l-1-.25c-.19,0-.32-.18-.28-.3l1.41-4.11c0-.12.23-.18.43-.13l1,.24c.2.05.33.19.28.31l-1.4,4.1C350.57,215.51,350.37,215.57,350.18,215.53Z" style="fill: rgb(38, 50, 56); transform-origin: 350.462px 213.132px;" id="elsyeotiprf1k" class="animable"></path><path d="M379.69,222.72l-1-.25c-.2,0-.32-.18-.28-.3l1.4-4.11c0-.12.24-.18.44-.13l1,.24c.19.05.32.19.28.31l-1.4,4.1C380.08,222.71,379.89,222.76,379.69,222.72Z" style="fill: rgb(38, 50, 56); transform-origin: 379.97px 220.323px;" id="el311amlxrek8" class="animable"></path><path d="M364.93,219.12l-1-.24c-.19,0-.32-.19-.28-.31l1.4-4.1c0-.12.24-.18.44-.13l1,.24c.2,0,.32.18.28.3l-1.4,4.11C365.33,219.11,365.13,219.17,364.93,219.12Z" style="fill: rgb(38, 50, 56); transform-origin: 365.21px 216.73px;" id="elpah5jxd6dli" class="animable"></path><path d="M379.62,134.47c.13.73.62,1.27,1.1,1.2s.76-.73.63-1.46-.62-1.27-1.1-1.2S379.49,133.74,379.62,134.47Z" style="fill: rgb(38, 50, 56); transform-origin: 380.485px 134.34px;" id="el6xtuasusmam" class="animable"></path><g id="elvg4vqws9rnk"><ellipse cx="388.76" cy="133.07" rx="0.88" ry="1.35" style="fill: rgb(38, 50, 56); transform-origin: 388.76px 133.07px; transform: rotate(-10.93deg);" class="animable" id="el7rquz70bgjk"></ellipse></g><path d="M388.32,131.81,390,131S389.33,132.55,388.32,131.81Z" style="fill: rgb(38, 50, 56); transform-origin: 389.16px 131.505px;" id="elowinxw4poxk" class="animable"></path><path d="M385.93,134.8a20.79,20.79,0,0,0,3.43,4.28,3.15,3.15,0,0,1-2.52.89Z" style="fill: rgb(99, 15, 15); transform-origin: 387.645px 137.393px;" id="elcgahit59kjp" class="animable"></path><path d="M384.85,143.22a.22.22,0,0,0,.1-.21.23.23,0,0,0-.25-.19,6,6,0,0,1-5.13-1.54.22.22,0,1,0-.32.29,6.36,6.36,0,0,0,5.52,1.68A.11.11,0,0,0,384.85,143.22Z" style="fill: rgb(38, 50, 56); transform-origin: 382.057px 142.261px;" id="el4lz4yw305zr" class="animable"></path><path d="M376,131.15a.33.33,0,0,0,.15-.16,3.38,3.38,0,0,1,2.5-1.86.42.42,0,0,0,.39-.47.45.45,0,0,0-.48-.4,4.23,4.23,0,0,0-3.18,2.32.44.44,0,0,0,.62.57Z" style="fill: rgb(38, 50, 56); transform-origin: 377.19px 129.735px;" id="elpcmszc7jn3" class="animable"></path><path d="M391.13,128.74a.18.18,0,0,0,.07-.05.43.43,0,0,0,0-.61,4.45,4.45,0,0,0-3.74-1.47.42.42,0,0,0-.34.5.44.44,0,0,0,.5.36,3.55,3.55,0,0,1,2.95,1.2A.44.44,0,0,0,391.13,128.74Z" style="fill: rgb(38, 50, 56); transform-origin: 389.219px 127.7px;" id="el61wv2ugqmfl" class="animable"></path><path d="M356.06,167.65c-1.25,1.47-2.39,2.68-3.64,3.94s-2.5,2.45-3.79,3.62a84,84,0,0,1-8.29,6.55c-1.47,1-3,2-4.53,2.88s-3.2,1.71-4.89,2.46a41.27,41.27,0,0,1-5.28,1.89c-.92.25-1.85.47-2.81.64-.47.11-1,.16-1.44.23l-.73.1-.88.07a19.42,19.42,0,0,1-6.26-.83,36.53,36.53,0,0,1-5.24-2,66.79,66.79,0,0,1-9.12-5.32,117.37,117.37,0,0,1-15.77-13.08l3.06-3.51c2.62,1.88,5.35,3.78,8.09,5.54s5.51,3.51,8.33,5.06a69.56,69.56,0,0,0,8.51,4.09,29.06,29.06,0,0,0,4.19,1.3,11.7,11.7,0,0,0,3.63.31l.36-.05.51-.1c.34-.07.68-.12,1-.22.67-.16,1.35-.36,2-.58a39,39,0,0,0,4.06-1.67,57.29,57.29,0,0,0,7.8-4.78,85.81,85.81,0,0,0,7.28-6c1.17-1.06,2.32-2.16,3.44-3.28s2.25-2.31,3.2-3.36Z" style="fill: rgb(127, 62, 59); transform-origin: 319.725px 175.795px;" id="elfq6uioce0hk" class="animable"></path><path d="M285.6,170.21l-5.78-3.39,5.94-5.46s3.62,3.51,3.25,7.35Z" style="fill: rgb(127, 62, 59); transform-origin: 284.428px 165.785px;" id="ellqr8ztotscf" class="animable"></path><polygon points="275.02 162.71 279.32 158.1 285.76 161.37 279.82 166.82 275.02 162.71" style="fill: rgb(127, 62, 59); transform-origin: 280.39px 162.46px;" id="el6zgz4xh1y3u" class="animable"></polygon><path d="M351.78,156.71c-3.9.21-9.2,7.25-9.2,7.25l10.17,12.5s5.94-3.89,5.45-9C357.68,162.21,356.24,156.46,351.78,156.71Z" style="fill: #A8A2E2; transform-origin: 350.404px 166.581px;" id="elba24qsqxfu7" class="animable"></path><path d="M380,133.08l1.67-.77S381.05,133.82,380,133.08Z" style="fill: rgb(38, 50, 56); transform-origin: 380.835px 132.797px;" id="eluovtl4j6bwj" class="animable"></path></g><g id="freepik--fresh-drink--inject-169" class="animable" style="transform-origin: 187.202px 257.651px;"><path d="M120.2,105.63l-.39-.92A74.07,74.07,0,0,1,148.45,99v1A73,73,0,0,0,120.2,105.63Z" style="fill: #A8A2E2; transform-origin: 134.13px 102.315px;" id="elkoa0jvlmw2g" class="animable"></path><path d="M108.86,111.57l-.54-.84c2.11-1.35,4.31-2.61,6.56-3.75l.45.89C113.12,109,110.94,110.24,108.86,111.57Z" style="fill: #A8A2E2; transform-origin: 111.825px 109.275px;" id="elhzko0q9bgqv" class="animable"></path><path d="M192.54,117.91a2.91,2.91,0,0,1,.38,4.16l-2.61,3-83.79,96.44-2.61,3a2.89,2.89,0,0,1-4.17.21,70.81,70.81,0,0,1,92.8-106.81Z" style="fill: #A8A2E2; transform-origin: 135.609px 163.991px;" id="elgzidkt1h8vs" class="animable"></path><path d="M190.31,125.07l-83.79,96.44a63.88,63.88,0,0,1,83.79-96.44Z" style="fill: rgb(255, 255, 255); transform-origin: 137.627px 165.638px;" id="elj28l70n693q" class="animable"></path><g id="elhwy88qxxdhq"><path d="M102.46,133.36a60.87,60.87,0,0,0,6,85.89l79.86-91.92A60.89,60.89,0,0,0,102.46,133.36Z" style="fill: #A8A2E2; opacity: 0.1; transform-origin: 137.919px 165.837px;" class="animable" id="elvugzudp4aik"></path></g><g id="eltx4bahbdo4"><path d="M109.88,208.21a51.44,51.44,0,0,1-12.54-25.13,2.38,2.38,0,0,1,2.16-2.82l35-2.45a2.36,2.36,0,0,1,2,3.9l-23,26.47A2.37,2.37,0,0,1,109.88,208.21Z" style="fill: #A8A2E2; opacity: 0.3; transform-origin: 117.189px 193.417px;" class="animable" id="elo99ps0hpvi"></path></g><g id="elhara2d62e55"><path d="M151,121.35a51.43,51.43,0,0,1,26.63,8.9,2.38,2.38,0,0,1,.47,3.52l-23,26.47a2.36,2.36,0,0,1-4.14-1.38l-2.46-35A2.38,2.38,0,0,1,151,121.35Z" style="fill: #A8A2E2; opacity: 0.3; transform-origin: 163.585px 141.202px;" class="animable" id="el64nsfbjzumq"></path></g><g id="el47jh1tyie8f"><path d="M96.47,170.73a51.53,51.53,0,0,1,8.91-26.63,2.37,2.37,0,0,1,3.52-.47l26.47,23a2.36,2.36,0,0,1-1.38,4.14l-35,2.45A2.39,2.39,0,0,1,96.47,170.73Z" style="fill: #A8A2E2; opacity: 0.3; transform-origin: 116.327px 158.137px;" class="animable" id="els30xhu4i7ji"></path></g><g id="elp7jor54sim"><path d="M113.5,134.75a51.44,51.44,0,0,1,25.12-12.53,2.37,2.37,0,0,1,2.83,2.15l2.45,35a2.36,2.36,0,0,1-3.9,1.94l-26.48-23A2.37,2.37,0,0,1,113.5,134.75Z" style="fill: #A8A2E2; opacity: 0.3; transform-origin: 128.305px 142.03px;" class="animable" id="eltf1ch0ornd"></path></g><path d="M213.54,116.53,241.9,366.8l7.66-.86L221.41,117.59a5.74,5.74,0,0,1,8.1-5.86l64.08,29.44,3.22-7L231,103.92A12.35,12.35,0,0,0,213.54,116.53Z" style="fill: #A8A2E2; transform-origin: 255.135px 234.788px;" id="elu0xhx899v3g" class="animable"></path><g id="elvnqkhrpuv5i"><path d="M213.54,116.53,241.9,366.8l7.66-.86L221.41,117.59a5.74,5.74,0,0,1,8.1-5.86l64.08,29.44,3.22-7L231,103.92A12.35,12.35,0,0,0,213.54,116.53Z" style="fill: rgb(255, 255, 255); opacity: 0.4; transform-origin: 255.135px 234.788px;" class="animable" id="el580tofom5b"></path></g><g id="el2he4wa6r2xt"><path d="M275,145.78,122,156.52a4.9,4.9,0,0,0-4.52,5.49l31.23,250a4.89,4.89,0,0,0,5.19,4.28l125.76-8.83a4.9,4.9,0,0,0,4.55-5l-4-251.87A4.89,4.89,0,0,0,275,145.78Z" style="fill: #A8A2E2; opacity: 0.3; transform-origin: 200.827px 281.036px;" class="animable" id="elenr5cscwq4q"></path></g><g id="elxbg3os3v03k"><path d="M264.25,187.11a8.3,8.3,0,0,1,8.67,8.18L275.75,373a15.38,15.38,0,0,1-14.31,15.6l-92.1,6.47A15.39,15.39,0,0,1,153,381.65L131.21,207.21a8.31,8.31,0,0,1,7.79-9.34c.57,0,1.16-.06,1.78-.11,12.14-.85,12-2.84,24.14-3.7s12.28,1.15,24.42.29,12-2.84,24.14-3.7,12.28,1.15,24.42.3,12-2.85,24.13-3.7C262.81,187.19,263.55,187.15,264.25,187.11Z" style="fill: #A8A2E2; opacity: 0.4; transform-origin: 203.448px 291.105px;" class="animable" id="el2yhpbwsgdbf"></path></g><g id="el43ba3v6oj44"><rect x="153.12" y="223.86" width="37.37" height="37.37" rx="5.56" style="fill: rgb(255, 255, 255); opacity: 0.2; transform-origin: 171.805px 242.545px; transform: rotate(-49.02deg);" class="animable" id="el29misshwh44"></rect></g><g id="elwpg7xkul1d"><rect x="199.81" y="210.11" width="37.37" height="37.37" rx="5.56" style="fill: rgb(255, 255, 255); opacity: 0.2; transform-origin: 218.495px 228.795px; transform: rotate(-128.48deg);" class="animable" id="eln91b1m85ei9"></rect></g><g id="elyjz2r3m14ln"><rect x="215.35" y="298.57" width="37.37" height="37.37" rx="5.56" style="fill: rgb(255, 255, 255); opacity: 0.2; transform-origin: 234.035px 317.255px; transform: rotate(-67.74deg);" class="animable" id="el9jcanxjjxq6"></rect></g><g id="elpdyupelswa8"><rect x="164.03" y="277.56" width="37.37" height="37.37" rx="5.56" style="fill: rgb(255, 255, 255); opacity: 0.2; transform-origin: 182.715px 296.245px; transform: rotate(-67.74deg);" class="animable" id="elpgzl1x92nv"></rect></g><g id="el4wn5vrzhxax"><rect x="170.84" y="334.89" width="37.37" height="37.37" rx="5.56" style="fill: rgb(255, 255, 255); opacity: 0.2; transform-origin: 189.525px 353.575px; transform: rotate(12.27deg);" class="animable" id="el4rr584n4or5"></rect></g></g><defs>     <filter id="active" height="200%">         <feMorphology in="SourceAlpha" result="DILATED" operator="dilate" radius="2"></feMorphology>                <feFlood flood-color="#32DFEC" flood-opacity="1" result="PINK"></feFlood>        <feComposite in="PINK" in2="DILATED" operator="in" result="OUTLINE"></feComposite>        <feMerge>            <feMergeNode in="OUTLINE"></feMergeNode>            <feMergeNode in="SourceGraphic"></feMergeNode>        </feMerge>    </filter>    <filter id="hover" height="200%">        <feMorphology in="SourceAlpha" result="DILATED" operator="dilate" radius="2"></feMorphology>                <feFlood flood-color="#ff0000" flood-opacity="0.5" result="PINK"></feFlood>        <feComposite in="PINK" in2="DILATED" operator="in" result="OUTLINE"></feComposite>        <feMerge>            <feMergeNode in="OUTLINE"></feMergeNode>            <feMergeNode in="SourceGraphic"></feMergeNode>        </feMerge>            <feColorMatrix type="matrix" values="0   0   0   0   0                0   1   0   0   0                0   0   0   0   0                0   0   0   1   0 "></feColorMatrix>    </filter></defs></svg>