<svg viewBox="0 0 1024 1024" class="icon" version="1.1" xmlns="http://www.w3.org/2000/svg" fill="#000000"><g id="SVGRepo_bgCarrier" stroke-width="0"></g><g id="SVGRepo_tracerCarrier" stroke-linecap="round" stroke-linejoin="round"></g><g id="SVGRepo_iconCarrier"><path d="M512 512m-512 0a512 512 0 1 0 1024 0 512 512 0 1 0-1024 0Z" fill="#DAE2E5"></path><path d="M512 192C335.296 192 192 335.296 192 512s143.296 320 320 320 320-143.296 320-320S688.704 192 512 192z m0 608c-159.072 0-288-128.928-288-288s128.928-288 288-288 288 128.928 288 288-128.928 288-288 288z" fill="#FFFFFF"></path><path d="M870.464 448c0-128-96-224-192-192-54.368 18.112-87.488 96-160 96s-96-64-160-64c-106.016 0-166.272 57.12-192 160-32 128 54.688 384 256 384 238.688 0 288-128 320-192s128-64 128-192z" fill="#FFFFFF"></path><path d="M742.464 640c-32 64-81.312 192-320 192-165.216 0-253.056-172.32-261.632-304.896-8.096 134.752 79.904 343.104 261.632 343.104 238.688 0 288-128 320-192s128-64 128-192c0-6.56-0.416-12.992-0.896-19.392-9.056 109.152-96.768 112.512-127.104 173.184z" fill=""></path><path d="M448 576m-128 0a128 128 0 1 0 256 0 128 128 0 1 0-256 0Z" fill="#EACA44"></path><path d="M448 672c-65.216 0-118.432-48.928-126.368-112-0.704 5.312-1.632 10.528-1.632 16a128 128 0 0 0 256 0c0-5.472-0.928-10.688-1.632-16C566.432 623.072 513.216 672 448 672z" fill=""></path><path d="M539.392 603.424c2.688-8.704 4.608-17.792 4.608-27.424a96 96 0 0 0-96-96c-9.632 0-18.72 1.92-27.424 4.608a159.68 159.68 0 0 1 118.816 118.816z" fill="#FFFFFF"></path></g></svg>