<svg height="200px" width="200px" version="1.1" id="_x32_" xmlns="http://www.w3.org/2000/svg" xmlns:xlink="http://www.w3.org/1999/xlink" viewBox="0 0 512 512" xml:space="preserve" fill="#ffffff" stroke="#ffffff"><g id="SVGRepo_bgCarrier" stroke-width="0"></g><g id="SVGRepo_tracerCarrier" stroke-linecap="round" stroke-linejoin="round"></g><g id="SVGRepo_iconCarrier"> <style type="text/css"> .st0{fill:#ffffff;} </style> <g> <path class="st0" d="M433.94,460.678c0,17.344,14.048,31.392,31.392,31.392c17.336,0,31.393-14.048,31.393-31.392 s-31.224-69.518-31.393-69.518C465.155,391.16,433.94,443.334,433.94,460.678z"></path> <path class="st0" d="M373.263,216.067c-18.028,0-68.948,0-118.995,0v-38.763h-47.473v-58.617 c14.563-9.263,21.175-23.17,33.864-23.17h14.778c8.429,0,17.401,25.324,51.734,25.324c26.222,0,47.482-21.259,47.482-47.482 c0-26.251-21.26-47.492-47.482-47.492c-34.333,0-43.306,25.305-51.734,25.305h-14.778c-19.011,0-24.293-31.242-63.29-31.242 c-38.997,0-44.279,31.242-63.29,31.242h-14.76c-8.447,0-17.419-25.305-51.753-25.305c-26.222,0-47.481,21.241-47.481,47.492 c0,26.223,21.259,47.482,47.481,47.482c34.334,0,43.306-25.324,51.753-25.324h14.76c12.69,0,19.302,13.908,33.864,23.17v58.617 h-47.5v38.763H0V426.85l79.043-0.008c0,0,162.15-65.792,276.65-100.996c41.976-12.896,55.302,38.126,55.302,38.126L512,342.02 C481.263,201.494,412.784,216.067,373.263,216.067z"></path> </g> </g></svg>